<svg width="50" height="50" viewBox="0 0 50 50" fill="none" xmlns="http://www.w3.org/2000/svg">
<circle cx="25" cy="25" r="25" fill="white"/>
<path d="M25.0086 19.1176C21.8854 19.1176 19.3662 21.5223 19.3662 24.5035C19.3662 27.4848 21.8854 29.8895 25.0086 29.8895C28.1318 29.8895 30.651 27.4848 30.651 24.5035C30.651 21.5223 28.1318 19.1176 25.0086 19.1176ZM25.0086 28.0051C22.9903 28.0051 21.3403 26.4348 21.3403 24.5035C21.3403 22.5723 22.9854 21.002 25.0086 21.002C27.0318 21.002 28.6769 22.5723 28.6769 24.5035C28.6769 26.4348 27.0269 28.0051 25.0086 28.0051ZM32.1979 18.8973C32.1979 19.5957 31.6086 20.1535 30.8818 20.1535C30.1501 20.1535 29.5657 19.591 29.5657 18.8973C29.5657 18.2035 30.155 17.641 30.8818 17.641C31.6086 17.641 32.1979 18.2035 32.1979 18.8973ZM35.9349 20.1723C35.8514 18.4895 35.4487 16.9988 34.1572 15.7707C32.8706 14.5426 31.309 14.1582 29.5461 14.0738C27.7291 13.9754 22.2831 13.9754 20.4662 14.0738C18.7081 14.1535 17.1465 14.5379 15.855 15.766C14.5635 16.9941 14.1657 18.4848 14.0773 20.1676C13.9742 21.902 13.9742 27.1004 14.0773 28.8348C14.1608 30.5176 14.5635 32.0082 15.855 33.2363C17.1465 34.4645 18.7032 34.8488 20.4662 34.9332C22.2831 35.0316 27.7291 35.0316 29.5461 34.9332C31.309 34.8535 32.8706 34.4691 34.1572 33.2363C35.4438 32.0082 35.8465 30.5176 35.9349 28.8348C36.038 27.1004 36.038 21.9066 35.9349 20.1723ZM33.5876 30.6957C33.2045 31.6145 32.463 32.3223 31.4956 32.6926C30.047 33.241 26.6095 33.1145 25.0086 33.1145C23.4077 33.1145 19.9653 33.2363 18.5215 32.6926C17.559 32.327 16.8175 31.6191 16.4296 30.6957C15.855 29.3129 15.9876 26.0316 15.9876 24.5035C15.9876 22.9754 15.8599 19.6895 16.4296 18.3113C16.8126 17.3926 17.5541 16.6848 18.5215 16.3145C19.9702 15.766 23.4077 15.8926 25.0086 15.8926C26.6095 15.8926 30.0519 15.7707 31.4956 16.3145C32.4581 16.6801 33.1996 17.3879 33.5876 18.3113C34.1621 19.6941 34.0295 22.9754 34.0295 24.5035C34.0295 26.0316 34.1621 29.3176 33.5876 30.6957Z" fill="black"/>
</svg>
