<svg width="50" height="50" viewBox="0 0 50 50" fill="none" xmlns="http://www.w3.org/2000/svg">
<path d="M25 0C11.1922 0 0 11.1922 0 25C0 38.8063 11.1922 50 25 50C38.8078 50 50 38.8063 50 25C50 11.1922 38.8078 0 25 0Z" fill="white"/>
<path d="M28.2344 14.2691C25.75 15.1738 24.1797 17.505 24.3578 20.0566L24.4172 21.041L23.4234 20.9207C19.8062 20.4582 16.6453 18.891 13.9609 16.2582L12.6484 14.9519L12.3125 15.916C11.5969 18.066 12.0547 20.3379 13.5453 21.866C14.3406 22.7097 14.1609 22.83 12.7906 22.3285C12.3141 22.1675 11.8953 22.0472 11.8562 22.1082C11.7172 22.2488 12.1937 24.0769 12.5719 24.8019C13.0891 25.8082 14.1422 26.791 15.2953 27.3754L16.2703 27.8379L15.1156 27.855C14.0031 27.855 13.9625 27.8754 14.0828 28.2988C14.4797 29.605 16.05 30.9925 17.8 31.5957L19.0328 32.0175L17.9594 32.6613C16.3687 33.5879 14.5 34.1097 12.6312 34.1472C11.7359 34.1675 11 34.2472 11 34.3082C11 34.5082 13.4266 35.6332 14.8359 36.0769C19.0703 37.3832 24.1 36.8191 27.8766 34.5894C30.5609 33.0019 33.2437 29.8457 34.4969 26.7894C35.1734 25.1629 35.8484 22.1879 35.8484 20.7613C35.8484 19.8363 35.9078 19.716 37.0203 18.6113C37.6766 17.9675 38.2922 17.2644 38.4125 17.0644C38.6125 16.6816 38.5906 16.6816 37.5781 17.0238C35.8891 17.6269 35.65 17.5472 36.4859 16.6425C37.1016 15.9988 37.8375 14.8332 37.8375 14.4925C37.8375 14.4332 37.5391 14.5332 37.2016 14.7129C36.8438 14.9144 36.0484 15.216 35.4516 15.3957L34.3781 15.7379L33.4047 15.0722C32.8672 14.7113 32.1141 14.3082 31.7156 14.1879C30.7 13.9066 29.15 13.9472 28.2344 14.2691Z" fill="#262626"/>
</svg>
